<svg width="4561" height="306" viewBox="0 0 4561 306" fill="none" xmlns="http://www.w3.org/2000/svg">
<path d="M0.140001 300V5.99998H114.38C138.46 5.99998 158.34 10.06 174.02 18.18C189.98 26.3 201.88 37.5 209.72 51.78C217.56 65.78 221.48 81.6 221.48 99.24C221.48 115.76 217.7 131.02 210.14 145.02C202.58 159.02 190.96 170.36 175.28 179.04C159.6 187.72 139.3 192.06 114.38 192.06H63.14V300H0.140001ZM63.14 141.66H110.18C126.7 141.66 138.6 137.88 145.88 130.32C153.44 122.48 157.22 112.12 157.22 99.24C157.22 86.08 153.44 75.86 145.88 68.58C138.6 61.02 126.7 57.24 110.18 57.24H63.14V141.66ZM262.23 300V5.99998H376.47C400.27 5.99998 420.01 10.2 435.69 18.6C451.65 26.72 463.41 37.64 470.97 51.36C478.81 65.08 482.73 80.34 482.73 97.14C482.73 112.82 478.95 127.52 471.39 141.24C464.11 154.96 452.63 166.02 436.95 174.42C421.27 182.82 400.97 187.02 376.05 187.02H325.23V300H262.23ZM413.85 300L354.63 171.48H422.25L485.25 300H413.85ZM325.23 141.66H372.69C388.37 141.66 399.85 137.88 407.13 130.32C414.69 122.76 418.47 112.54 418.47 99.66C418.47 87.06 414.69 77.12 407.13 69.84C399.85 62.28 388.37 58.5 372.69 58.5H325.23V141.66ZM668.212 305.04C639.372 305.04 614.032 298.6 592.192 285.72C570.352 272.84 553.132 255.06 540.532 232.38C528.212 209.42 522.052 182.96 522.052 153C522.052 123.04 528.212 96.72 540.532 74.04C553.132 51.08 570.352 33.16 592.192 20.28C614.032 7.4 639.372 0.959995 668.212 0.959995C697.052 0.959995 722.532 7.4 744.652 20.28C766.772 33.16 783.852 51.08 795.892 74.04C808.212 96.72 814.372 123.04 814.372 153C814.372 182.96 808.212 209.42 795.892 232.38C783.852 255.06 766.772 272.84 744.652 285.72C722.532 298.6 697.052 305.04 668.212 305.04ZM668.212 248.34C685.292 248.34 699.852 244.42 711.892 236.58C724.212 228.74 733.732 217.82 740.452 203.82C747.172 189.54 750.532 172.6 750.532 153C750.532 133.4 747.172 116.6 740.452 102.6C733.732 88.32 724.212 77.4 711.892 69.84C699.852 62 685.292 58.08 668.212 58.08C651.692 58.08 637.272 62 624.952 69.84C612.632 77.4 603.112 88.32 596.392 102.6C589.672 116.6 586.312 133.4 586.312 153C586.312 172.6 589.672 189.54 596.392 203.82C603.112 217.82 612.632 228.74 624.952 236.58C637.272 244.42 651.692 248.34 668.212 248.34ZM944.208 305.04C924.608 305.04 907.388 301.4 892.548 294.12C877.708 286.56 866.088 275.5 857.688 260.94C849.568 246.38 845.508 228.6 845.508 207.6H908.088C908.088 216.28 909.348 223.7 911.868 229.86C914.668 236.02 918.588 240.78 923.628 244.14C928.668 247.22 934.968 248.76 942.528 248.76C949.808 248.76 955.828 247.36 960.588 244.56C965.348 241.48 968.848 237.14 971.088 231.54C973.328 225.94 974.448 219.22 974.448 211.38V5.99998H1037.45V211.38C1037.45 241.9 1028.91 265.14 1011.83 281.1C995.028 297.06 972.488 305.04 944.208 305.04ZM1093.62 300V5.99998H1290.6V56.82H1156.62V126.12H1278V174.84H1156.62V249.18H1290.6V300H1093.62ZM1473.67 305.04C1444.27 305.04 1418.93 298.74 1397.65 286.14C1376.37 273.26 1359.99 255.48 1348.51 232.8C1337.03 209.84 1331.29 183.52 1331.29 153.84C1331.29 123.6 1337.03 97.14 1348.51 74.46C1359.99 51.5 1376.37 33.58 1397.65 20.7C1418.93 7.53999 1444.27 0.959995 1473.67 0.959995C1510.07 0.959995 1539.75 10.06 1562.71 28.26C1585.95 46.46 1600.37 72.08 1605.97 105.12H1537.09C1533.73 90.28 1526.59 78.8 1515.67 70.68C1504.75 62.28 1490.61 58.08 1473.25 58.08C1456.73 58.08 1442.59 62 1430.83 69.84C1419.35 77.68 1410.53 88.74 1404.37 103.02C1398.49 117.02 1395.55 133.96 1395.55 153.84C1395.55 173.16 1398.49 189.96 1404.37 204.24C1410.53 218.24 1419.35 229.16 1430.83 237C1442.59 244.56 1456.73 248.34 1473.25 248.34C1490.61 248.34 1504.61 244.7 1515.25 237.42C1526.17 229.86 1533.45 219.08 1537.09 205.08H1605.97C1600.37 236.16 1585.95 260.66 1562.71 278.58C1539.75 296.22 1510.07 305.04 1473.67 305.04ZM1719.47 300V56.82H1634.21V5.99998H1867.73V56.82H1782.47V300H1719.47ZM2008.64 305.04C1987.64 305.04 1968.6 301.54 1951.52 294.54C1934.72 287.26 1921.42 276.62 1911.62 262.62C1901.82 248.62 1896.5 231.4 1895.66 210.96H1962.86C1963.14 219.08 1965.24 226.22 1969.16 232.38C1973.08 238.54 1978.4 243.44 1985.12 247.08C1991.84 250.44 1999.68 252.12 2008.64 252.12C2016.2 252.12 2022.78 251 2028.38 248.76C2034.26 246.24 2038.88 242.74 2042.24 238.26C2045.6 233.5 2047.28 227.62 2047.28 220.62C2047.28 213.34 2045.32 207.18 2041.4 202.14C2037.48 196.82 2032.16 192.34 2025.44 188.7C2018.72 184.78 2010.88 181.28 2001.92 178.2C1993.24 174.84 1983.86 171.62 1973.78 168.54C1950.54 160.98 1932.62 150.76 1920.02 137.88C1907.7 125 1901.54 107.78 1901.54 86.22C1901.54 68.3 1905.88 53.04 1914.56 40.44C1923.52 27.56 1935.7 17.76 1951.1 11.04C1966.5 4.31999 1984 0.959995 2003.6 0.959995C2023.76 0.959995 2041.4 4.45999 2056.52 11.46C2071.92 18.18 2084.1 28.12 2093.06 41.28C2102.3 54.16 2107.2 69.56 2107.76 87.48H2040.14C2039.86 81.32 2038.04 75.72 2034.68 70.68C2031.6 65.64 2027.26 61.58 2021.66 58.5C2016.34 55.42 2010.04 53.88 2002.76 53.88C1996.32 53.6 1990.44 54.58 1985.12 56.82C1979.8 58.78 1975.6 62 1972.52 66.48C1969.44 70.68 1967.9 76 1967.9 82.44C1967.9 88.6 1969.44 94.06 1972.52 98.82C1975.88 103.3 1980.36 107.22 1985.96 110.58C1991.84 113.66 1998.56 116.6 2006.12 119.4C2013.96 122.2 2022.5 125 2031.74 127.8C2046.58 132.84 2060.16 138.86 2072.48 145.86C2085.08 152.58 2095.16 161.54 2102.72 172.74C2110.56 183.66 2114.48 198.22 2114.48 216.42C2114.48 232.38 2110.28 247.08 2101.88 260.52C2093.76 273.96 2081.86 284.74 2066.18 292.86C2050.78 300.98 2031.6 305.04 2008.64 305.04Z" fill="#7B4397"/>
<path d="M2446.31 300V5.99998H2560.55C2584.63 5.99998 2604.51 10.06 2620.19 18.18C2636.15 26.3 2648.05 37.5 2655.89 51.78C2663.73 65.78 2667.65 81.6 2667.65 99.24C2667.65 115.76 2663.87 131.02 2656.31 145.02C2648.75 159.02 2637.13 170.36 2621.45 179.04C2605.77 187.72 2585.47 192.06 2560.55 192.06H2509.31V300H2446.31ZM2509.31 141.66H2556.35C2572.87 141.66 2584.77 137.88 2592.05 130.32C2599.61 122.48 2603.39 112.12 2603.39 99.24C2603.39 86.08 2599.61 75.86 2592.05 68.58C2584.77 61.02 2572.87 57.24 2556.35 57.24H2509.31V141.66ZM2708.4 300V5.99998H2822.64C2846.44 5.99998 2866.18 10.2 2881.86 18.6C2897.82 26.72 2909.58 37.64 2917.14 51.36C2924.98 65.08 2928.9 80.34 2928.9 97.14C2928.9 112.82 2925.12 127.52 2917.56 141.24C2910.28 154.96 2898.8 166.02 2883.12 174.42C2867.44 182.82 2847.14 187.02 2822.22 187.02H2771.4V300H2708.4ZM2860.02 300L2800.8 171.48H2868.42L2931.42 300H2860.02ZM2771.4 141.66H2818.86C2834.54 141.66 2846.02 137.88 2853.3 130.32C2860.86 122.76 2864.64 112.54 2864.64 99.66C2864.64 87.06 2860.86 77.12 2853.3 69.84C2846.02 62.28 2834.54 58.5 2818.86 58.5H2771.4V141.66ZM3114.38 305.04C3085.54 305.04 3060.2 298.6 3038.36 285.72C3016.52 272.84 2999.3 255.06 2986.7 232.38C2974.38 209.42 2968.22 182.96 2968.22 153C2968.22 123.04 2974.38 96.72 2986.7 74.04C2999.3 51.08 3016.52 33.16 3038.36 20.28C3060.2 7.4 3085.54 0.959995 3114.38 0.959995C3143.22 0.959995 3168.7 7.4 3190.82 20.28C3212.94 33.16 3230.02 51.08 3242.06 74.04C3254.38 96.72 3260.54 123.04 3260.54 153C3260.54 182.96 3254.38 209.42 3242.06 232.38C3230.02 255.06 3212.94 272.84 3190.82 285.72C3168.7 298.6 3143.22 305.04 3114.38 305.04ZM3114.38 248.34C3131.46 248.34 3146.02 244.42 3158.06 236.58C3170.38 228.74 3179.9 217.82 3186.62 203.82C3193.34 189.54 3196.7 172.6 3196.7 153C3196.7 133.4 3193.34 116.6 3186.62 102.6C3179.9 88.32 3170.38 77.4 3158.06 69.84C3146.02 62 3131.46 58.08 3114.38 58.08C3097.86 58.08 3083.44 62 3071.12 69.84C3058.8 77.4 3049.28 88.32 3042.56 102.6C3035.84 116.6 3032.48 133.4 3032.48 153C3032.48 172.6 3035.84 189.54 3042.56 203.82C3049.28 217.82 3058.8 228.74 3071.12 236.58C3083.44 244.42 3097.86 248.34 3114.38 248.34ZM3390.38 305.04C3370.78 305.04 3353.56 301.4 3338.72 294.12C3323.88 286.56 3312.26 275.5 3303.86 260.94C3295.74 246.38 3291.68 228.6 3291.68 207.6H3354.26C3354.26 216.28 3355.52 223.7 3358.04 229.86C3360.84 236.02 3364.76 240.78 3369.8 244.14C3374.84 247.22 3381.14 248.76 3388.7 248.76C3395.98 248.76 3402 247.36 3406.76 244.56C3411.52 241.48 3415.02 237.14 3417.26 231.54C3419.5 225.94 3420.62 219.22 3420.62 211.38V5.99998H3483.62V211.38C3483.62 241.9 3475.08 265.14 3458 281.1C3441.2 297.06 3418.66 305.04 3390.38 305.04ZM3539.79 300V5.99998H3736.77V56.82H3602.79V126.12H3724.17V174.84H3602.79V249.18H3736.77V300H3539.79ZM3919.84 305.04C3890.44 305.04 3865.1 298.74 3843.82 286.14C3822.54 273.26 3806.16 255.48 3794.68 232.8C3783.2 209.84 3777.46 183.52 3777.46 153.84C3777.46 123.6 3783.2 97.14 3794.68 74.46C3806.16 51.5 3822.54 33.58 3843.82 20.7C3865.1 7.53999 3890.44 0.959995 3919.84 0.959995C3956.24 0.959995 3985.92 10.06 4008.88 28.26C4032.12 46.46 4046.54 72.08 4052.14 105.12H3983.26C3979.9 90.28 3972.76 78.8 3961.84 70.68C3950.92 62.28 3936.78 58.08 3919.42 58.08C3902.9 58.08 3888.76 62 3877 69.84C3865.52 77.68 3856.7 88.74 3850.54 103.02C3844.66 117.02 3841.72 133.96 3841.72 153.84C3841.72 173.16 3844.66 189.96 3850.54 204.24C3856.7 218.24 3865.52 229.16 3877 237C3888.76 244.56 3902.9 248.34 3919.42 248.34C3936.78 248.34 3950.78 244.7 3961.42 237.42C3972.34 229.86 3979.62 219.08 3983.26 205.08H4052.14C4046.54 236.16 4032.12 260.66 4008.88 278.58C3985.92 296.22 3956.24 305.04 3919.84 305.04ZM4165.64 300V56.82H4080.38V5.99998H4313.9V56.82H4228.64V300H4165.64ZM4454.81 305.04C4433.81 305.04 4414.77 301.54 4397.69 294.54C4380.89 287.26 4367.59 276.62 4357.79 262.62C4347.99 248.62 4342.67 231.4 4341.83 210.96H4409.03C4409.31 219.08 4411.41 226.22 4415.33 232.38C4419.25 238.54 4424.57 243.44 4431.29 247.08C4438.01 250.44 4445.85 252.12 4454.81 252.12C4462.37 252.12 4468.95 251 4474.55 248.76C4480.43 246.24 4485.05 242.74 4488.41 238.26C4491.77 233.5 4493.45 227.62 4493.45 220.62C4493.45 213.34 4491.49 207.18 4487.57 202.14C4483.65 196.82 4478.33 192.34 4471.61 188.7C4464.89 184.78 4457.05 181.28 4448.09 178.2C4439.41 174.84 4430.03 171.62 4419.95 168.54C4396.71 160.98 4378.79 150.76 4366.19 137.88C4353.87 125 4347.71 107.78 4347.71 86.22C4347.71 68.3 4352.05 53.04 4360.73 40.44C4369.69 27.56 4381.87 17.76 4397.27 11.04C4412.67 4.31999 4430.17 0.959995 4449.77 0.959995C4469.93 0.959995 4487.57 4.45999 4502.69 11.46C4518.09 18.18 4530.27 28.12 4539.23 41.28C4548.47 54.16 4553.37 69.56 4553.93 87.48H4486.31C4486.03 81.32 4484.21 75.72 4480.85 70.68C4477.77 65.64 4473.43 61.58 4467.83 58.5C4462.51 55.42 4456.21 53.88 4448.93 53.88C4442.49 53.6 4436.61 54.58 4431.29 56.82C4425.97 58.78 4421.77 62 4418.69 66.48C4415.61 70.68 4414.07 76 4414.07 82.44C4414.07 88.6 4415.61 94.06 4418.69 98.82C4422.05 103.3 4426.53 107.22 4432.13 110.58C4438.01 113.66 4444.73 116.6 4452.29 119.4C4460.13 122.2 4468.67 125 4477.91 127.8C4492.75 132.84 4506.33 138.86 4518.65 145.86C4531.25 152.58 4541.33 161.54 4548.89 172.74C4556.73 183.66 4560.65 198.22 4560.65 216.42C4560.65 232.38 4556.45 247.08 4548.05 260.52C4539.93 273.96 4528.03 284.74 4512.35 292.86C4496.95 300.98 4477.77 305.04 4454.81 305.04Z" fill="#9F5F80"/>
</svg>
